<svg xmlns="http://www.w3.org/2000/svg" version="1.1" xmlns:xlink="http://www.w3.org/1999/xlink" xmlns:svgjs="http://svgjs.dev/svgjs" width="1500" height="1500" viewBox="0 0 1500 1500"><rect width="1500" height="1500" fill="#ffffff"></rect><g transform="matrix(0.6666666666666666,0,0,0.6666666666666666,250.5985735974932,332.00539811066136)"><svg viewBox="0 0 295 247" data-background-color="#ffffff" preserveAspectRatio="xMidYMid meet" height="1255" width="1500" xmlns="http://www.w3.org/2000/svg" xmlns:xlink="http://www.w3.org/1999/xlink"><g id="tight-bounds" transform="matrix(1,0,0,1,-0.1765792112605027,-0.09999999999999432)"><svg viewBox="0 0 295.353158422521 247.2" height="247.2" width="295.353158422521"><g><svg viewBox="0 0 395.52 331.03605365929525" height="247.2" width="295.353158422521"><g transform="matrix(1,0,0,1,0,204.59356166926315)"><svg viewBox="0 0 395.52 126.44249199003207" height="126.44249199003207" width="395.52"><g id="textblocktransform"><svg viewBox="0 0 395.52 126.44249199003207" height="126.44249199003207" width="395.52" id="textblock"><g><svg viewBox="0 0 395.52 126.44249199003207" height="126.44249199003207" width="395.52"><g transform="matrix(1,0,0,1,0,0)"><svg width="395.52" viewBox="1 -35.45 140.44 44.900000000000006" height="126.44249199003207" data-palette-color="#89939e"><path d="M13.2-14L13.2-0.05Q13.2 0.3 8.65 0.3L8.65 0.3Q4.1 0.2 4.1-0.1L4.1-0.1 4.1-16.7 2.75-16.7Q1.95-16.7 1.48-17.68 1-18.65 1-20.1L1-20.1Q1-25.5 4.2-25.5L4.2-25.5Q6.45-25.5 7.95-24.13 9.45-22.75 9.45-21L9.45-21Q10.5-23.05 12.28-24.28 14.05-25.5 15.9-25.5L15.9-25.5Q18.8-25.5 19.4-24L19.4-24Q19.55-23.6 19.55-22.83 19.55-22.05 19.07-20.05 18.6-18.05 18.1-17.15 17.6-16.25 17.5-16.25 17.4-16.25 16.57-16.63 15.75-17 15.1-17L15.1-17Q13.2-17 13.2-14L13.2-14ZM40.95-1.35L40.95-1.35Q37.8 0.5 32.85 0.5 27.9 0.5 24.5-2.88 21.1-6.25 21.1-12.23 21.1-18.2 24.37-21.85 27.65-25.5 32.65-25.5 37.65-25.5 40.37-22.95 43.1-20.4 43.1-16.75L43.1-16.75Q43.1-8.65 33.8-8.65L33.8-8.65 30.35-8.65Q30.35-7.15 31.17-6.58 32-6 33.6-6L33.6-6Q37.1-6 40.25-7.6L40.25-7.6Q40.3-7.65 40.7-6.9L40.7-6.9Q41.9-4.75 41.9-3.28 41.9-1.8 40.95-1.35ZM34.7-15.8L34.7-15.8Q34.7-17.9 32.65-17.9L32.65-17.9Q31.7-17.9 31.02-17.32 30.35-16.75 30.35-15.65L30.35-15.65 30.35-14.1 33.05-14.1Q34.7-14.1 34.7-15.8ZM54.55-12.4L54.55-12.4Q54.55-7.5 58.24-7.5L58.24-7.5Q60.64-7.5 62.25-8.45L62.25-8.45Q63-8.45 63.47-5.88 63.95-3.3 63.95-2.38 63.95-1.45 63.7-1.15L63.7-1.15Q61.05 0.5 56.45 0.5 51.84 0.5 48.62-2.93 45.39-6.35 45.39-12.28 45.39-18.2 48.57-21.85 51.74-25.5 57.02-25.5 62.3-25.5 64.34-22.95L64.34-22.95Q64.8-22.4 64.8-21.33 64.8-20.25 64.39-18.7L64.39-18.7Q63.5-15.5 62.05-15L62.05-15Q61.84-14.95 61.47-14.95 61.09-14.95 60.55-15.55L60.55-15.55Q58.59-17.5 57.42-17.5 56.24-17.5 55.39-16.3 54.55-15.1 54.55-12.4ZM76.69-24.85L76.69-0.3Q76.69 0.1 72.12 0.1 67.54 0.1 67.54-0.25L67.54-0.25 67.54-24.8Q67.54-25.15 72.12-25.15 76.69-25.15 76.69-24.85L76.69-24.85ZM76.69-35.15L76.69-27.8Q76.69-27.45 72.12-27.45 67.54-27.45 67.54-27.75L67.54-27.75 67.54-34.95Q67.54-35.45 72.12-35.45 76.69-35.45 76.69-35.15L76.69-35.15ZM91.94 0L91.94 9.1Q91.94 9.45 87.67 9.45 83.39 9.45 83.39 9.1L83.39 9.1 83.39-16.65 81.69-16.65Q80.49-16.65 80.04-18.85L80.04-18.85Q79.89-19.55 79.89-20.65 79.89-21.75 80.59-23.25L80.59-23.25Q81.59-25.45 83.79-25.45L83.79-25.45Q85.24-25.45 86.47-24.78 87.69-24.1 88.17-23.53 88.64-22.95 88.64-22.85L88.64-22.85Q91.99-25.45 95.89-25.45 99.79-25.45 102.59-22.43 105.39-19.4 105.39-13.08 105.39-6.75 102.59-3.28 99.79 0.2 95.49 0.2L95.49 0.2Q93.54 0.2 91.94 0L91.94 0ZM93.99-16.7L93.99-16.7Q93.14-16.7 92.34-16.15L92.34-16.15 92.34-7.3Q93.19-7.2 93.72-7.2 94.24-7.2 94.54-7.2L94.54-7.2Q96.59-7.4 96.59-12.45L96.59-12.45Q96.59-16.7 93.99-16.7ZM127.84-1.35L127.84-1.35Q124.69 0.5 119.74 0.5 114.79 0.5 111.39-2.88 107.99-6.25 107.99-12.23 107.99-18.2 111.26-21.85 114.54-25.5 119.54-25.5 124.54-25.5 127.26-22.95 129.99-20.4 129.99-16.75L129.99-16.75Q129.99-8.65 120.69-8.65L120.69-8.65 117.24-8.65Q117.24-7.15 118.06-6.58 118.89-6 120.49-6L120.49-6Q123.99-6 127.14-7.6L127.14-7.6Q127.19-7.65 127.59-6.9L127.59-6.9Q128.79-4.75 128.79-3.28 128.79-1.8 127.84-1.35ZM121.59-15.8L121.59-15.8Q121.59-17.9 119.54-17.9L119.54-17.9Q118.59-17.9 117.91-17.32 117.24-16.75 117.24-15.65L117.24-15.65 117.24-14.1 119.94-14.1Q121.59-14.1 121.59-15.8ZM141.44-9L141.44 0.15Q141.44 0.5 136.71 0.5 131.99 0.5 131.99 0.2L131.99 0.2 131.99-8.8Q131.99-9.25 136.71-9.25 141.44-9.25 141.44-9L141.44-9Z" opacity="1" transform="matrix(1,0,0,1,0,0)" fill="#89939e" class="wordmark-text-0" data-fill-palette-color="primary" id="text-0"></path></svg></g></svg></g></svg></g></svg></g><g transform="matrix(1,0,0,1,132.23117852616588,0)"><svg viewBox="0 0 131.05764294766826 174.74352393022434" height="174.74352393022434" width="131.05764294766826"><g><svg xmlns="http://www.w3.org/2000/svg" viewBox="18.5 8 60 80" x="0" y="0" height="174.74352393022434" width="131.05764294766826" class="icon-icon-0" data-fill-palette-color="accent" id="icon-0"><g fill="#dedede" data-fill-palette-color="accent"><path d="M38.5 36c-1.352 0-4 4.527-4 10 0 2.24 0.52 6 4 6s4-3.76 4-6C42.5 40.527 39.852 36 38.5 36Z" fill="#dedede" data-fill-palette-color="accent"></path><path d="M54.5 36.201V56h8V46A10.017 10.017 0 0 0 54.5 36.201Z" fill="#dedede" data-fill-palette-color="accent"></path><path d="M22.5 20a7.904 7.904 0 0 1-4-1.113V82a6 6 0 0 0 6 6h54V20Zm18 35.704V78a2 2 0 0 1-4 0V55.704c-3.086-0.823-6-3.638-6-9.704 0-5.723 2.848-14 8-14s8 8.277 8 14C46.5 52.066 43.586 54.881 40.5 55.704ZM66.5 58a2 2 0 0 1-2 2h-10V78a2 2 0 0 1-4 0V34a2.033 2.033 0 0 1 2.091-2A14.017 14.017 0 0 1 66.5 46Z" fill="#dedede" data-fill-palette-color="accent"></path><path d="M22.5 16h48V8h-48a4 4 0 0 0 0 8Z" fill="#dedede" data-fill-palette-color="accent"></path></g></svg></g></svg></g><g></g></svg></g><defs></defs></svg><rect width="295.353158422521" height="247.2" fill="none" stroke="none" visibility="hidden"></rect></g></svg></g></svg>